<?xml version="1.0" standalone="no"?>
<!DOCTYPE svg PUBLIC "-//W3C//DTD SVG 20010904//EN"
 "http://www.w3.org/TR/2001/REC-SVG-20010904/DTD/svg10.dtd">
<svg version="1.0" xmlns="http://www.w3.org/2000/svg"
 width="942.000000pt" height="1280.000000pt" viewBox="0 0 942.000000 1280.000000"
 preserveAspectRatio="xMidYMid meet">
<metadata>
Created by potrace 1.15, written by Peter Selinger 2001-2017
</metadata>
<g transform="translate(0.000000,1280.000000) scale(0.100000,-0.100000)"
fill="#000000" stroke="none">
<path d="M6810 12785 c-118 -23 -203 -52 -309 -106 -506 -258 -718 -872 -476
-1385 142 -303 398 -511 727 -591 113 -28 385 -25 495 5 479 130 803 547 803
1035 0 290 -121 564 -339 769 -139 131 -313 224 -491 263 -105 23 -316 28
-410 10z"/>
<path d="M6090 10369 c-283 -22 -524 -133 -725 -334 -116 -115 -120 -121 -680
-938 l-470 -686 -900 -3 -900 -3 -56 -23 c-169 -68 -274 -212 -286 -394 -18
-254 136 -464 371 -507 40 -7 385 -11 1065 -11 1102 0 1085 0 1206 60 33 16
80 49 105 73 36 35 316 424 751 1045 l44 64 6 -1994 c3 -1096 7 -2938 8 -4093
2 -2318 -3 -2173 65 -2310 89 -179 263 -292 477 -310 238 -20 482 112 581 315
73 149 68 -40 68 2630 l0 2400 115 0 115 0 0 -2379 c0 -2664 -5 -2482 71
-2640 170 -350 670 -442 958 -175 72 67 114 131 149 226 l27 73 5 4150 5 4150
103 3 102 3 0 -1488 c0 -1644 -3 -1562 65 -1699 86 -175 287 -277 486 -247
199 31 355 188 389 391 8 48 10 551 8 1787 l-4 1720 -22 96 c-65 285 -176 493
-358 675 -225 224 -497 346 -832 374 -141 12 -1961 11 -2112 -1z"/>
<path d="M1545 6820 l-280 -280 283 -283 282 -282 282 282 283 283 -280 280
c-154 154 -282 280 -285 280 -3 0 -131 -126 -285 -280z"/>
<path d="M2075 5750 l-280 -280 283 -283 282 -282 282 282 283 283 -280 280
c-154 154 -282 280 -285 280 -3 0 -131 -126 -285 -280z"/>
<path d="M3 5348 c3 -13 60 -315 126 -673 189 -1020 610 -3295 741 -4006 66
-355 120 -649 120 -653 0 -3 582 -6 1293 -6 l1292 0 83 448 c184 983 912 4868
917 4890 l5 22 -378 0 -379 0 -46 -237 c-59 -304 -372 -1936 -617 -3215 -105
-546 -198 -1030 -208 -1076 l-17 -82 -655 0 c-360 0 -656 3 -657 7 -3 9 -27
137 -153 813 -115 619 -231 1240 -365 1955 -64 341 -152 814 -196 1050 -44
237 -95 509 -113 605 l-33 175 -383 3 -382 2 5 -22z"/>
<path d="M1720 4135 l0 -385 395 0 395 0 0 385 0 385 -395 0 -395 0 0 -385z"/>
</g>
</svg>
